#!OML:ASF F:\VICON\USERDATA\Patient Classification 1\PLAYGROUND\JustinFriday\JustinFriday.ASF
:FULLY-SPECIFIED
:DEGREES
2328
root 12.6692 17.3939 33.5715 -218.648 -185.841 -186.235
lowerback 15.0474 -1.0048 -1.96002
upperback 4.26701 -1.58244 0.796893
thorax -3.8327 -0.779811 2.22985
lowerneck 4.24756 -8.48772 -7.16509
upperneck -29.883 -9.46741 13.2865
head -8.87843 -4.99938 6.58913
rclavicle -2.98177e-015 -5.56597e-015
rhumerus -20.7345 24.706 -90.5469
rradius 95.062
rwrist 19.2415
rhand -9.01524 -27.6896
rfingers 7.12502
rthumb 16.9318 -56.9715
lclavicle -2.98177e-015 -5.56597e-015
lhumerus -22.0327 -13.2478 93.9463
lradius 94.5293
lwrist -33.7366
lhand 13.2118 -2.96075
lfingers 7.12502
lthumb 38.1659 22.7931
rfemur -20.1562 -0.396853 27.0889
rtibia 44.2488
rfoot -19.7209 -9.2234
rtoes 13.1089
lfemur -19.8658 3.85144 -15.9294
ltibia 43.9533
lfoot -23.0518 -13.2003
ltoes 4.98938
2329
root 12.6386 17.4693 33.6458 -218.612 -185.988 -187.036
lowerback 14.7118 -1.33127 -1.44396
upperback 4.58644 -1.93906 0.667823
thorax -3.3203 -0.96732 1.84857
lowerneck 4.05887 -8.55995 -6.73989
upperneck -30.3141 -9.45787 13.3925
head -9.01617 -5.04209 6.579
rclavicle 4.37326e-014 -4.37326e-015
rhumerus -21.3027 24.6416 -91.4769
rradius 95.2663
rwrist 20.0108
rhand -9.88937 -28.463
rfingers 7.12502
rthumb 16.0902 -57.815
lclavicle 4.37326e-014 -4.37326e-015
lhumerus -22.3276 -13.108 93.3921
lradius 95.2259
lwrist -33.8532
lhand 13.2738 -3.02861
lfingers 7.12502
lthumb 38.2244 22.7092
rfemur -19.8976 0.149107 27.6731
rtibia 44.2046
rfoot -20.649 -7.98954
rtoes 17.5496
lfemur -19.6709 3.89121 -15.1748
ltibia 43.8117
lfoot -22.8234 -13.4949
ltoes 4.97779
2330
root 12.6116 17.5637 33.7113 -218.605 -186.37 -187.537
lowerback 14.4976 -1.56672 -1.37192
upperback 4.84719 -2.24175 0.56913
thorax -2.92569 -1.12444 1.74239
lowerneck 4.01753 -8.60373 -6.50277
upperneck -30.7903 -9.43935 13.5011
head -9.18798 -5.06385 6.61436
rclavicle -9.93923e-016 0
rhumerus -21.9707 25.0423 -92.0205
rradius 96.0871
rwrist 19.903
rhand -9.60231 -28.8827
rfingers 7.12502
rthumb 16.3666 -58.2121
lclavicle -9.93923e-016 0
lhumerus -22.8582 -12.8722 93.2523
lradius 96.075
lwrist -34.2802
lhand 13.3485 -3.05175
lfingers 7.12502
lthumb 38.2949 22.6666
rfemur -19.6647 0.823817 27.6813
rtibia 44.0719
rfoot -21.3525 -5.73173
rtoes 24.1168
lfemur -19.3343 3.99155 -14.8863
ltibia 43.6778
lfoot -22.8581 -13.7839
ltoes 3.29168
2331
root 12.5923 17.64 33.7762 -218.342 -187.059 -187.294
lowerback 13.8883 -1.63486 -2.17709
upperback 5.22686 -2.43555 0.403376
thorax -2.16475 -1.23923 2.02196
lowerneck 3.91531 -8.68788 -6.41349
upperneck -31.4863 -9.49056 13.5946
head -9.41313 -5.09811 6.68706
rclavicle -2.40529e-014 7.15625e-015
rhumerus -22.0276 26.292 -91.7571
rradius 96.9134
rwrist 19.434
rhand -9.23109 -29.1868
rfingers 7.12502
rthumb 16.724 -58.4864
lclavicle -2.40529e-014 7.15625e-015
lhumerus -23.0255 -12.6475 93.253
lradius 96.8186
lwrist -34.7168
lhand 13.5129 -2.91888
lfingers 7.12502
lthumb 38.4501 22.7565
rfemur -19.3807 0.824157 26.9897
rtibia 43.8806
rfoot -21.648 -3.88119
rtoes 27.9353
lfemur -19.1706 4.27093 -15.5084
ltibia 43.5417
lfoot -22.8919 -14.0067
ltoes 1.89174
2332
root 12.5669 17.7027 33.8509 -218.188 -187.814 -187.762
lowerback 15.2532 -1.73521 -2.04279
upperback 4.02327 -2.5967 0.230409
thorax -4.17106 -1.27433 1.87523
lowerneck 5.44025 -8.92569 -6.42106
upperneck -31.3202 -9.98773 13.319
head -9.60642 -5.31886 6.70526
rclavicle -1.15295e-014 2.38542e-014
rhumerus -25.4994 26.5181 -93.3049
rradius 97.4199
rwrist 20.5175
rhand -10.0461 -31.521
rfingers 7.12502
rthumb 15.9392 -60.8852
lclavicle -1.15295e-014 2.38542e-014
lhumerus -25.7307 -13.1253 93.8363
lradius 97.6064
lwrist -35.143
lhand 13.6181 -2.86105
lfingers 7.12502
lthumb 38.5493 22.7866
rfemur -19.013 0.752769 26.9849
rtibia 43.6561
rfoot -22.227 -2.48158
rtoes 30.9194
lfemur -19.0947 4.16343 -15.4609
ltibia 43.3426
lfoot -22.8443 -14.5442
ltoes 2.60845
2333
root 12.5443 17.7706 33.9245 -218.235 -187.728 -188.392
lowerback 14.385 -1.72301 -1.90561
upperback 4.72127 -2.52377 0.514332
thorax -2.96494 -1.26455 2.03052
lowerneck 5.18375 -9.13081 -6.51567
upperneck -31.9765 -10.2483 13.3626
head -9.75744 -5.42054 6.78652
rclavicle 3.69739e-014 -3.97569e-015
rhumerus -25.0588 26.5518 -92.4196
rradius 97.651
rwrist 18.959
rhand -10.1046 -29.8122
rfingers 7.12502
rthumb 15.8829 -59.1808
lclavicle 3.69739e-014 -3.97569e-015
lhumerus -25.2797 -13.3469 93.9787
lradius 98.0675
lwrist -35.5761
lhand 13.743 -2.72964
lfingers 7.12502
lthumb 38.6672 22.8849
rfemur -18.4607 1.27784 27.6134
rtibia 43.4409
rfoot -22.7203 -0.38036
rtoes 34.5787
lfemur -19.0359 4.07139 -14.6184
ltibia 43.1825
lfoot -22.5621 -15.2653
ltoes 5.16199
2334
root 12.5241 17.8462 33.9979 -218.264 -187.852 -188.542
lowerback 12.9511 -1.63899 -2.5744
upperback 5.88659 -2.44998 0.853887
thorax -0.929779 -1.28392 2.66481
lowerneck 4.29425 -9.34258 -6.70017
upperneck -32.8494 -10.4698 13.4794
head -9.86137 -5.49058 6.8794
rclavicle -4.17448e-015 6.36111e-015
rhumerus -23.9107 27.48 -91.195
rradius 98.1733
rwrist 18.2908
rhand -10.338 -30.5185
rfingers 7.12502
rthumb 15.6582 -59.9049
lclavicle -4.17448e-015 6.36111e-015
lhumerus -24.181 -13.3059 94.1974
lradius 98.6566
lwrist -35.7583
lhand 14.003 -2.35645
lfingers 7.12502
lthumb 38.9123 23.1886
rfemur -17.9771 1.95094 27.6083
rtibia 43.1733
rfoot -22.638 1.85996
rtoes 38.6362
lfemur -18.6333 4.11043 -14.374
ltibia 42.9433
lfoot -22.5416 -15.6107
ltoes 6.01785
2335
root 12.5032 17.8998 34.0773 -218.237 -188.215 -188.599
lowerback 12.0514 -1.56139 -3.29817
upperback 6.58794 -2.39254 1.0745
thorax 0.331117 -1.30823 3.24355
lowerneck 3.96114 -9.61016 -6.83803
upperneck -33.6067 -10.8376 13.4593
head -10.0295 -5.6245 6.95387
rclavicle 1.74931e-014 -1.03368e-014
rhumerus -23.5989 28.0564 -90.3638
rradius 98.5039
rwrist 17.9954
rhand -10.8 -30.8093
rfingers 7.12502
rthumb 15.2132 -60.23
lclavicle 1.74931e-014 -1.03368e-014
lhumerus -23.861 -13.4325 94.5448
lradius 99.4328
lwrist -35.6133
lhand 14.3384 -1.84784
lfingers 7.12502
lthumb 39.2285 23.6064
rfemur -17.3135 2.02284 27.535
rtibia 42.9478
rfoot -22.8198 3.42757
rtoes 41.1254
lfemur -18.332 4.17497 -14.3836
ltibia 42.7902
lfoot -22.6821 -16.0289
ltoes 4.86749
2336
root 12.4817 17.9786 34.1408 -218.042 -188.432 -188.856
lowerback 11.4662 -1.51588 -3.63536
upperback 6.83855 -2.34253 1.31755
thorax 0.934581 -1.31423 3.6539
lowerneck 3.95399 -9.85869 -7.0844
upperneck -34.0391 -11.2184 13.4653
head -10.1268 -5.76346 7.04909
rclavicle -9.54166e-015 -7.15625e-015
rhumerus -24.1155 28.4811 -89.8315
rradius 99.0244
rwrist 17.8
rhand -10.7403 -31.0636
rfingers 7.12502
rthumb 15.2706 -60.4799
lclavicle -9.54166e-015 -7.15625e-015
lhumerus -24.2722 -13.4789 95.0521
lradius 100.264
lwrist -35.6054
lhand 14.8909 -1.77298
lfingers 7.12502
lthumb 39.7489 23.5283
rfemur -17.2314 2.68874 27.5511
rtibia 42.7126
rfoot -22.2792 5.09682
rtoes 43.7566
lfemur -18.1166 4.25701 -14.1216
ltibia 42.4564
lfoot -22.7536 -16.514
ltoes 3.97978
2337
root 12.4703 18.0228 34.2177 -217.652 -188.816 -188.939
lowerback 10.8588 -1.4917 -4.14769
upperback 6.94262 -2.33407 1.47187
thorax 1.40578 -1.34239 4.07809
lowerneck 4.09331 -9.99758 -7.25807
upperneck -34.4752 -11.4425 13.4725
head -10.2786 -5.83829 7.14075
rclavicle -2.74323e-014 2.22639e-014
rhumerus -24.8119 29.0888 -89.474
rradius 99.6757
rwrist 17.2717
rhand -10.8251 -31.4736
rfingers 7.12502
rthumb 15.189 -60.8961
lclavicle -2.74323e-014 2.22639e-014
lhumerus -24.7693 -13.3693 95.4939
lradius 100.957
lwrist -35.6529
lhand 15.4399 -2.49234
lfingers 7.12502
lthumb 40.2656 22.653
rfemur -16.8616 2.00222 27.5287
rtibia 42.513
rfoot -22.5818 6.23457
rtoes 44.2667
lfemur -18.2296 4.13278 -14.1947
ltibia 42.2883
lfoot -22.7296 -16.8202
ltoes 3.92204
2338
root 12.4589 18.1018 34.2778 -217.309 -189.288 -188.802
lowerback 10.2188 -1.50609 -4.72618
upperback 7.1196 -2.3726 1.44449
thorax 1.97388 -1.39962 4.35088
lowerneck 4.53224 -10.0095 -7.38877
upperneck -35.2783 -11.4695 13.5808
head -10.6509 -5.83073 7.31933
rclavicle -3.91606e-014 3.18055e-015
rhumerus -25.2492 29.7196 -89.1662
rradius 100.089
rwrist 16.7163
rhand -11.2297 -31.9067
rfingers 7.12502
rthumb 14.7992 -61.3583
lclavicle -3.91606e-014 3.18055e-015
lhumerus -25.2148 -13.4935 95.7308
lradius 101.662
lwrist -35.9698
lhand 15.524 -2.37654
lfingers 7.12502
lthumb 40.3446 22.7446
rfemur -16.9037 2.83328 26.8364
rtibia 42.1947
rfoot -21.698 8.30477
rtoes 46.268
lfemur -18.0506 3.78376 -14.5125
ltibia 41.9811
lfoot -22.7279 -16.9869
ltoes 3.97338
2339
root 12.4544 18.1571 34.3502 -217.019 -189.586 -188.756
lowerback 9.63572 -1.54455 -4.74926
upperback 7.26037 -2.39451 1.18126
thorax 2.4311 -1.41952 4.06473
lowerneck 5.03166 -10.1364 -7.39447
upperneck -36.165 -11.5794 13.9185
head -11.0515 -5.89834 7.58287
rclavicle -1.33186e-014 1.66979e-014
rhumerus -25.868 30.0433 -89.2638
rradius 100.517
rwrist 16.2966
rhand -11.6753 -32.3306
rfingers 7.12502
rthumb 14.3699 -61.8132
lclavicle -1.33186e-014 1.66979e-014
lhumerus -25.9199 -13.7747 95.6638
lradius 102.551
lwrist -36.2242
lhand 15.6357 -2.2882
lfingers 7.12502
lthumb 40.4497 22.8006
rfemur -16.5368 2.331 26.6584
rtibia 41.8567
rfoot -21.7337 9.06686
rtoes 46.1695
lfemur -17.9007 3.40406 -14.6402
ltibia 41.7288
lfoot -22.7652 -17.1408
ltoes 4.01693
